<?xml version="1.0" encoding="UTF-8"?>
<svg version="1.1" xmlns="http://www.w3.org/2000/svg" width="512" height="512">
<path d="M0 0 C168.96 0 337.92 0 512 0 C512 48.51 512 97.02 512 147 C495.83 147 479.66 147 463 147 C461.35 141.39 459.7 135.78 458 130 C456.43308733 126.1651874 454.89574015 122.64354683 453 119 C452.53335937 118.04996094 452.06671875 117.09992188 451.5859375 116.12109375 C442.27824134 98.53734264 426.30745202 87.30112779 407.6171875 81.31640625 C392.76669848 76.8947037 377.63234063 74.96047846 362.1796875 74.68359375 C361.19501495 74.66281265 360.21034241 74.64203156 359.1958313 74.62062073 C356.08894988 74.55588953 352.9819931 74.49660041 349.875 74.4375 C347.75259676 74.39424186 345.6302008 74.35062541 343.5078125 74.30664062 C338.33861641 74.200288 333.16934551 74.09881171 328 74 C328.08197928 115.96267289 328.17423611 157.92531223 328.28005161 199.88793211 C328.29256872 204.85521953 328.30500177 209.82250716 328.31738281 214.78979492 C328.3210818 216.27298343 328.3210818 216.27298343 328.32485552 217.78613534 C328.36445224 233.74343964 328.39725711 249.70075091 328.42749982 265.65807537 C328.45874325 282.06261651 328.49740643 298.4671284 328.54279006 314.87163657 C328.5705082 324.97343463 328.59261241 335.0752116 328.60726251 345.1770372 C328.6179007 352.12805001 328.63582171 359.07902167 328.65916704 366.03000329 C328.67237937 370.02516019 328.68267273 374.02026009 328.68421364 378.01543999 C326.43087843 422.265876 326.43087843 422.265876 341.59375 461.9375 C356.75236937 476.23808431 386.09611759 472.52740294 405 473 C405 485.87 405 498.74 405 512 C306.33 512 207.66 512 106 512 C106 499.13 106 486.26 106 473 C110.888125 472.896875 115.77625 472.79375 120.8125 472.6875 C130.25748442 472.42339831 139.6478973 472.14118967 149 470.6875 C150.07084839 470.52930786 150.07084839 470.52930786 151.16333008 470.36791992 C160.5025085 468.72446783 167.03514354 464.30855209 172.5625 456.6875 C177.54451681 448.38937736 179.28181171 437.2887306 179.82776648 427.73225385 C179.98960315 425.16493202 180.23994961 422.62306941 180.5096426 420.06518841 C181.13058594 413.29834228 181.15307265 406.56070126 181.15821838 399.76948547 C181.16279388 398.35755834 181.16779532 396.94563254 181.17318195 395.53370827 C181.18666014 391.68202892 181.19415118 387.83035831 181.20060861 383.97866166 C181.20865835 379.81452492 181.22234017 375.65040611 181.23532104 371.48628235 C181.2570193 364.28097919 181.2751879 357.07567416 181.29092598 349.87035561 C181.31368546 339.45280874 181.34181968 329.03528178 181.37124526 318.61775186 C181.41884689 301.7140081 181.46213108 284.81025617 181.50268555 267.90649414 C181.54207836 251.49079758 181.5835136 235.07510826 181.62768555 218.65942383 C181.63177196 217.14039102 181.63177196 217.14039102 181.63594092 215.59067068 C181.64962102 210.51006334 181.66334117 205.42945612 181.67708123 200.34884894 C181.79092922 158.23258107 181.89776426 116.11629756 182 74 C175.83305452 74.07006573 169.66671273 74.1585619 163.50024414 74.26245117 C161.41274861 74.29522567 159.3251745 74.32339625 157.23754883 74.34643555 C139.56184159 74.54657003 121.46552716 75.28665265 104.5 80.75 C103.68233154 81.00531494 102.86466309 81.26062988 102.0222168 81.52368164 C89.08296049 85.74247806 76.95120164 92.54788743 68.38671875 103.32421875 C67 105 67 105 65.06640625 106.84765625 C54.831923 117.50777019 51.28017569 133.39515583 47 147 C31.49 147 15.98 147 0 147 C0 98.49 0 49.98 0 0 Z " fill="#000000" transform="translate(0,0)"/>
<path d="" fill="#464646" transform="translate(0,0)"/>
<path d="" fill="#616161" transform="translate(0,0)"/>
<path d="" fill="#898989" transform="translate(0,0)"/>
<path d="" fill="#191919" transform="translate(0,0)"/>
<path d="" fill="#292929" transform="translate(0,0)"/>
<path d="" fill="#898989" transform="translate(0,0)"/>
<path d="" fill="#828282" transform="translate(0,0)"/>
</svg>
